<svg id="Layer_1" data-name="Layer 1" xmlns="http://www.w3.org/2000/svg" viewBox="0 0 150 150"><defs><style>.cls-1,.cls-2{fill:#111111;}.cls-2,.cls-3{stroke:#111111;}.cls-2{stroke-width:4px;}.cls-3{fill:none;stroke-width:5px;}</style></defs><title>Artboard 1</title><g id="Group_31" data-name="Group 31"><path id="Path_15" data-name="Path 15" class="cls-1" d="M131.06,79.25a22.75,22.75,0,0,1-45.5,0h0a22.75,22.75,0,0,1,45.5,0m-65.81,0a22.75,22.75,0,0,1-45.5,0h0a22.75,22.75,0,0,1,45.5,0h0"/><path id="Path_16" data-name="Path 16" class="cls-2" d="M131.06,79.25a22.75,22.75,0,0,1-45.5,0h0a22.75,22.75,0,0,1,45.5,0Zm-65.81,0a22.75,22.75,0,0,1-45.5,0h0a22.75,22.75,0,0,1,45.5,0Z"/><path id="Path_17" data-name="Path 17" class="cls-3" d="M64.84,74.78c6.55-4.89,12.79-5.88,21.13.81"/><path id="Path_19" data-name="Path 19" class="cls-1" d="M19.75,82.5H11.62V73.56h8.13Z"/><path id="Path_20" data-name="Path 20" class="cls-1" d="M138.38,82.5h-8.13V73.56h8.13Z"/></g></svg>