<svg id="Layer_2" data-name="Layer 2" xmlns="http://www.w3.org/2000/svg" viewBox="0 0 150 150"><defs><style>.cls-1{fill:#fff;}</style></defs><title>user</title><g id="Group_4" data-name="Group 4"><g id="Group_1" data-name="Group 1"><path id="Path_1" data-name="Path 1" class="cls-1" d="M75,124.5a49.5,49.5,0,0,0,0-99h0A49.5,49.5,0,0,0,25.5,75h0A49.5,49.5,0,0,0,75,124.5h0"/></g><g id="Group_2" data-name="Group 2"><path id="Path_2" data-name="Path 2" d="M91.17,57.91A16.19,16.19,0,0,1,75,74.09h0A16.17,16.17,0,1,1,91.17,57.91"/></g><g id="Group_3" data-name="Group 3"><path id="Path_3" data-name="Path 3" d="M64.34,77.75H85.66a10.7,10.7,0,0,1,10.7,10.69v19.82H53.64V88.44a10.7,10.7,0,0,1,10.7-10.69"/></g></g></svg>